<svg width="228" height="40" viewBox="0 0 228 40" fill="none" xmlns="http://www.w3.org/2000/svg">
<path d="M45.2158 17.3091C45.1185 17.5037 45.0036 17.6407 44.8709 17.7203C44.7471 17.7999 44.5968 17.8397 44.42 17.8397C44.2431 17.8397 44.0442 17.7734 43.8231 17.6407C43.6021 17.4992 43.3412 17.3445 43.0406 17.1765C42.7399 17.0085 42.3862 16.8582 41.9795 16.7255C41.5816 16.5841 41.1085 16.5133 40.5603 16.5133C40.0651 16.5133 39.6318 16.5752 39.2604 16.699C38.8979 16.814 38.5884 16.9775 38.332 17.1898C38.0844 17.402 37.8987 17.6584 37.7749 17.9591C37.6511 18.2509 37.5892 18.5736 37.5892 18.9273C37.5892 19.3783 37.713 19.7541 37.9606 20.0547C38.217 20.3553 38.553 20.6118 38.9686 20.824C39.3842 21.0362 39.8573 21.2263 40.3878 21.3943C40.9184 21.5623 41.4578 21.7436 42.006 21.9381C42.5631 22.1238 43.1069 22.3449 43.6374 22.6013C44.168 22.8489 44.641 23.1672 45.0566 23.5563C45.4722 23.9365 45.8038 24.4052 46.0514 24.9622C46.3078 25.5193 46.436 26.1958 46.436 26.9916C46.436 27.8581 46.2857 28.6716 45.9851 29.4321C45.6933 30.1837 45.26 30.8425 44.6853 31.4084C44.1193 31.9654 43.4252 32.4076 42.6029 32.7347C41.7805 33.0531 40.8388 33.2122 39.7777 33.2122C39.1676 33.2122 38.5663 33.1503 37.9739 33.0265C37.3814 32.9116 36.8111 32.7436 36.2629 32.5225C35.7235 32.3014 35.215 32.0362 34.7375 31.7267C34.2689 31.4172 33.8489 31.0724 33.4775 30.6921L34.5121 28.9811C34.6093 28.8573 34.7243 28.7556 34.8569 28.6761C34.9984 28.5876 35.1531 28.5434 35.3211 28.5434C35.5422 28.5434 35.7809 28.6363 36.0374 28.822C36.2938 28.9988 36.5944 29.1978 36.9393 29.4188C37.293 29.6399 37.7042 29.8433 38.1728 30.0289C38.6503 30.2058 39.2206 30.2942 39.8838 30.2942C40.9007 30.2942 41.6877 30.0555 42.2447 29.578C42.8018 29.0917 43.0804 28.3975 43.0804 27.4956C43.0804 26.9916 42.9521 26.5804 42.6957 26.2621C42.4481 25.9438 42.1165 25.6785 41.7009 25.4663C41.2853 25.2452 40.8123 25.0595 40.2817 24.9092C39.7512 24.7589 39.2118 24.5953 38.6636 24.4184C38.1153 24.2416 37.5759 24.0294 37.0454 23.7818C36.5149 23.5342 36.0418 23.2114 35.6262 22.8135C35.2106 22.4156 34.8746 21.9205 34.6182 21.328C34.3706 20.7267 34.2468 19.9884 34.2468 19.113C34.2468 18.4144 34.3838 17.7336 34.658 17.0704C34.9409 16.4072 35.3477 15.8192 35.8782 15.3063C36.4176 14.7935 37.0764 14.3823 37.8545 14.0728C38.6326 13.7633 39.5213 13.6086 40.5205 13.6086C41.6523 13.6086 42.6957 13.7854 43.6507 14.1391C44.6057 14.4928 45.4192 14.988 46.0912 15.6247L45.2158 17.3091ZM53.4428 33.2122C52.2667 33.2122 51.3604 32.8806 50.7237 32.2174C50.0871 31.5454 49.7687 30.6214 49.7687 29.4453V21.8453H48.3893C48.2125 21.8453 48.0577 21.7878 47.9251 21.6729C47.8013 21.5579 47.7394 21.3855 47.7394 21.1556V19.8557L49.9279 19.4976L50.6176 15.7838C50.653 15.607 50.7326 15.4699 50.8564 15.3726C50.989 15.2754 51.1526 15.2267 51.3471 15.2267H53.0449V19.5109H56.626V21.8453H53.0449V29.2199C53.0449 29.6443 53.151 29.9759 53.3632 30.2146C53.5754 30.4534 53.8584 30.5728 54.2121 30.5728C54.4154 30.5728 54.5834 30.5507 54.7161 30.5064C54.8576 30.4534 54.9769 30.4003 55.0742 30.3473C55.1803 30.2942 55.2731 30.2456 55.3527 30.2014C55.4323 30.1483 55.5119 30.1218 55.5915 30.1218C55.6887 30.1218 55.7683 30.1483 55.8302 30.2014C55.8921 30.2456 55.9584 30.3163 56.0292 30.4136L57.0107 32.0052C56.5332 32.4031 55.985 32.7038 55.366 32.9072C54.747 33.1105 54.1059 33.2122 53.4428 33.2122ZM69.8955 33H68.4232C68.1137 33 67.8705 32.9558 67.6937 32.8674C67.5169 32.7701 67.3842 32.58 67.2958 32.297L67.004 31.3288C66.6591 31.6383 66.3187 31.9124 65.9827 32.1511C65.6555 32.381 65.3151 32.5756 64.9614 32.7347C64.6077 32.8939 64.2319 33.0133 63.834 33.0928C63.4361 33.1724 62.994 33.2122 62.5076 33.2122C61.9329 33.2122 61.4023 33.1371 60.916 32.9867C60.4297 32.8276 60.0096 32.5932 59.6559 32.2838C59.3111 31.9743 59.0414 31.5896 58.8469 31.1298C58.6523 30.67 58.5551 30.1351 58.5551 29.5249C58.5551 29.0121 58.6877 28.5081 58.953 28.0129C59.2271 27.5089 59.678 27.0579 60.3059 26.66C60.9337 26.2532 61.7693 25.9172 62.8127 25.652C63.8561 25.3867 65.1515 25.2364 66.6989 25.201V24.4052C66.6989 23.4944 66.5044 22.8224 66.1153 22.3891C65.7351 21.947 65.178 21.7259 64.4441 21.7259C63.9136 21.7259 63.4714 21.7878 63.1177 21.9116C62.7641 22.0354 62.4546 22.1769 62.1893 22.336C61.9329 22.4864 61.6941 22.6234 61.4731 22.7472C61.252 22.871 61.0088 22.9329 60.7436 22.9329C60.5225 22.9329 60.3324 22.8754 60.1732 22.7605C60.0141 22.6455 59.8858 22.5041 59.7886 22.336L59.1917 21.2882C60.7568 19.8557 62.6447 19.1395 64.8553 19.1395C65.6511 19.1395 66.3585 19.2721 66.9775 19.5374C67.6053 19.7939 68.1358 20.1564 68.5691 20.625C69.0024 21.0848 69.3295 21.6375 69.5506 22.283C69.7805 22.9285 69.8955 23.6359 69.8955 24.4052V33ZM63.5289 30.9574C63.8649 30.9574 64.1744 30.9265 64.4574 30.8646C64.7403 30.8027 65.0056 30.7098 65.2532 30.586C65.5096 30.4622 65.7528 30.3119 65.9827 30.1351C66.2214 29.9494 66.4602 29.7327 66.6989 29.4851V27.1905C65.7439 27.2347 64.9437 27.3187 64.2982 27.4425C63.6616 27.5575 63.1487 27.7078 62.7596 27.8935C62.3706 28.0792 62.092 28.2958 61.924 28.5434C61.7649 28.791 61.6853 29.0607 61.6853 29.3525C61.6853 29.9273 61.8533 30.3384 62.1893 30.586C62.5341 30.8336 62.9807 30.9574 63.5289 30.9574ZM76.4328 13.2903V24.5776H77.0429C77.264 24.5776 77.4364 24.5467 77.5602 24.4848C77.684 24.4229 77.8166 24.3079 77.9581 24.1399L81.3403 19.9619C81.4906 19.785 81.6498 19.648 81.8178 19.5507C81.9858 19.4446 82.2069 19.3915 82.481 19.3915H85.4786L81.2475 24.445C81.0971 24.6307 80.9424 24.8031 80.7832 24.9622C80.6241 25.1126 80.4516 25.2452 80.266 25.3602C80.4516 25.4928 80.6152 25.6475 80.7567 25.8244C80.8982 26.0012 81.0397 26.1913 81.1811 26.3947L85.7173 33H82.7595C82.5031 33 82.2864 32.9558 82.1096 32.8674C81.9328 32.7789 81.7736 32.6286 81.6321 32.4164L78.1703 27.2569C78.0377 27.0535 77.905 26.9208 77.7724 26.8589C77.6398 26.797 77.4408 26.7661 77.1755 26.7661H76.4328V33H73.1567V13.2903H76.4328ZM92.5742 19.1793C93.4319 19.1793 94.2189 19.3164 94.9351 19.5905C95.6602 19.8646 96.2836 20.2669 96.8053 20.7975C97.327 21.3192 97.7337 21.9647 98.0255 22.734C98.3173 23.4944 98.4632 24.3654 98.4632 25.3469C98.4632 25.5945 98.45 25.8023 98.4234 25.9703C98.4058 26.1294 98.366 26.2577 98.3041 26.3549C98.251 26.4433 98.1759 26.5097 98.0786 26.5539C97.9813 26.5892 97.8575 26.6069 97.7072 26.6069H89.2981C89.3953 28.004 89.7711 29.0298 90.4255 29.6841C91.0798 30.3384 91.9464 30.6656 93.0251 30.6656C93.5557 30.6656 94.0111 30.6037 94.3913 30.4799C94.7804 30.3561 95.1164 30.2191 95.3993 30.0687C95.6911 29.9184 95.9431 29.7814 96.1554 29.6576C96.3764 29.5338 96.5886 29.4719 96.792 29.4719C96.9247 29.4719 97.0396 29.4984 97.1369 29.5515C97.2341 29.6045 97.3181 29.6797 97.3889 29.7769L98.3439 30.9707C97.9813 31.3951 97.5746 31.7532 97.1236 32.045C96.6726 32.328 96.1996 32.5579 95.7044 32.7347C95.2181 32.9027 94.7185 33.0221 94.2056 33.0928C93.7016 33.1636 93.2108 33.199 92.7333 33.199C91.7872 33.199 90.9074 33.0442 90.0939 32.7347C89.2804 32.4164 88.573 31.9522 87.9717 31.342C87.3704 30.7231 86.8974 29.9626 86.5525 29.0607C86.2076 28.1499 86.0352 27.0977 86.0352 25.904C86.0352 24.9755 86.1855 24.1045 86.4862 23.291C86.7868 22.4687 87.2157 21.7569 87.7728 21.1556C88.3387 20.5455 89.024 20.0635 89.8286 19.7098C90.6421 19.3562 91.5573 19.1793 92.5742 19.1793ZM92.6405 21.527C91.6855 21.527 90.9383 21.7967 90.3989 22.336C89.8596 22.8754 89.5147 23.6403 89.3644 24.6307H95.5187C95.5187 24.2062 95.4612 23.8083 95.3463 23.4369C95.2313 23.0567 95.0545 22.7251 94.8157 22.4422C94.577 22.1592 94.2763 21.9381 93.9138 21.779C93.5513 21.611 93.1268 21.527 92.6405 21.527ZM106.834 33V21.8586L105.653 21.6729C105.397 21.6287 105.189 21.5402 105.03 21.4076C104.879 21.275 104.804 21.0893 104.804 20.8505V19.5109H106.834V18.5029C106.834 17.7247 106.949 17.0262 107.178 16.4072C107.417 15.7882 107.753 15.2621 108.187 14.8288C108.629 14.3956 109.164 14.064 109.791 13.8341C110.419 13.6042 111.127 13.4892 111.914 13.4892C112.541 13.4892 113.125 13.5732 113.664 13.7412L113.598 15.3859C113.58 15.6423 113.461 15.8015 113.24 15.8634C113.019 15.9253 112.762 15.9562 112.471 15.9562C112.082 15.9562 111.732 16.0005 111.423 16.0889C111.122 16.1685 110.866 16.3144 110.654 16.5266C110.441 16.73 110.278 17.0041 110.163 17.3489C110.057 17.6849 110.004 18.105 110.004 18.609V19.5109H113.545V21.8453H110.11V33H106.834ZM121.36 19.1793C122.376 19.1793 123.296 19.3429 124.118 19.6701C124.95 19.9972 125.657 20.4615 126.241 21.0627C126.824 21.664 127.275 22.3979 127.593 23.2645C127.912 24.1311 128.071 25.0993 128.071 26.1692C128.071 27.248 127.912 28.2207 127.593 29.0872C127.275 29.9538 126.824 30.6921 126.241 31.3023C125.657 31.9124 124.95 32.381 124.118 32.7082C123.296 33.0354 122.376 33.199 121.36 33.199C120.343 33.199 119.419 33.0354 118.587 32.7082C117.756 32.381 117.044 31.9124 116.452 31.3023C115.868 30.6921 115.413 29.9538 115.086 29.0872C114.768 28.2207 114.608 27.248 114.608 26.1692C114.608 25.0993 114.768 24.1311 115.086 23.2645C115.413 22.3979 115.868 21.664 116.452 21.0627C117.044 20.4615 117.756 19.9972 118.587 19.6701C119.419 19.3429 120.343 19.1793 121.36 19.1793ZM121.36 30.6789C122.491 30.6789 123.327 30.2986 123.866 29.5382C124.415 28.7777 124.689 27.6636 124.689 26.1958C124.689 24.7279 124.415 23.6094 123.866 22.8401C123.327 22.0708 122.491 21.6861 121.36 21.6861C120.21 21.6861 119.361 22.0752 118.813 22.8533C118.265 23.6226 117.991 24.7368 117.991 26.1958C117.991 27.6548 118.265 28.7689 118.813 29.5382C119.361 30.2986 120.21 30.6789 121.36 30.6789ZM130.627 33V19.3915H132.55C132.886 19.3915 133.121 19.4534 133.253 19.5772C133.386 19.701 133.474 19.9132 133.519 20.2139L133.718 21.8586C134.204 21.0185 134.774 20.3553 135.429 19.869C136.083 19.3827 136.817 19.1395 137.63 19.1395C138.302 19.1395 138.859 19.2943 139.302 19.6037L138.877 22.0575C138.851 22.2167 138.793 22.3316 138.705 22.4024C138.616 22.4643 138.497 22.4952 138.347 22.4952C138.214 22.4952 138.033 22.4643 137.803 22.4024C137.573 22.3405 137.268 22.3095 136.888 22.3095C136.207 22.3095 135.623 22.4996 135.137 22.8799C134.65 23.2512 134.239 23.7995 133.903 24.5245V33H130.627ZM150.789 33H147.208V13.8208H150.789V33ZM154.926 33V19.3915H156.929C157.354 19.3915 157.632 19.5905 157.765 19.9884L157.977 20.9964C158.216 20.7311 158.463 20.488 158.72 20.2669C158.985 20.0459 159.264 19.8557 159.555 19.6966C159.856 19.5374 160.174 19.4136 160.51 19.3252C160.855 19.2279 161.231 19.1793 161.638 19.1793C162.496 19.1793 163.199 19.4136 163.747 19.8823C164.304 20.3421 164.719 20.9566 164.994 21.7259C165.206 21.275 165.471 20.8903 165.789 20.572C166.108 20.2448 166.457 19.9795 166.837 19.7762C167.217 19.5728 167.62 19.4225 168.044 19.3252C168.477 19.2279 168.911 19.1793 169.344 19.1793C170.096 19.1793 170.763 19.2943 171.347 19.5242C171.93 19.7541 172.421 20.0901 172.819 20.5322C173.217 20.9743 173.518 21.5137 173.721 22.1504C173.933 22.787 174.039 23.5165 174.039 24.3389V33H170.763V24.3389C170.763 23.4723 170.573 22.8224 170.193 22.3891C169.813 21.947 169.256 21.7259 168.522 21.7259C168.186 21.7259 167.872 21.7834 167.58 21.8983C167.297 22.0133 167.045 22.1813 166.824 22.4024C166.612 22.6146 166.444 22.8843 166.32 23.2114C166.196 23.5386 166.134 23.9144 166.134 24.3389V33H162.845V24.3389C162.845 23.4281 162.659 22.7649 162.288 22.3493C161.925 21.9337 161.386 21.7259 160.67 21.7259C160.201 21.7259 159.759 21.8453 159.343 22.084C158.937 22.3139 158.556 22.6323 158.203 23.039V33H154.926ZM177.257 37.4433V19.3915H179.26C179.472 19.3915 179.653 19.4402 179.804 19.5374C179.954 19.6347 180.051 19.785 180.095 19.9884L180.361 21.2484C180.909 20.6206 181.537 20.1122 182.244 19.7231C182.96 19.334 183.796 19.1395 184.751 19.1395C185.494 19.1395 186.17 19.2943 186.78 19.6037C187.399 19.9132 187.93 20.3642 188.372 20.9566C188.823 21.5402 189.168 22.2653 189.407 23.1319C189.654 23.9896 189.778 24.9755 189.778 26.0897C189.778 27.1065 189.641 28.0482 189.367 28.9148C189.093 29.7814 188.699 30.533 188.186 31.1696C187.682 31.8063 187.068 32.3059 186.343 32.6684C185.626 33.0221 184.822 33.199 183.929 33.199C183.159 33.199 182.505 33.084 181.966 32.8541C181.435 32.6154 180.958 32.2882 180.533 31.8726V37.4433H177.257ZM183.624 21.7259C182.943 21.7259 182.359 21.8718 181.873 22.1636C181.395 22.4466 180.949 22.8489 180.533 23.3706V29.4719C180.905 29.9317 181.307 30.2544 181.74 30.4401C182.182 30.617 182.655 30.7054 183.159 30.7054C183.655 30.7054 184.101 30.6125 184.499 30.4269C184.906 30.2412 185.246 29.9582 185.52 29.578C185.803 29.1978 186.02 28.7203 186.17 28.1455C186.32 27.5619 186.396 26.8766 186.396 26.0897C186.396 25.2938 186.329 24.6218 186.197 24.0736C186.073 23.5165 185.892 23.0655 185.653 22.7207C185.414 22.3758 185.122 22.1238 184.777 21.9647C184.441 21.8055 184.057 21.7259 183.624 21.7259ZM202.92 33H201.448C201.139 33 200.895 32.9558 200.718 32.8674C200.542 32.7701 200.409 32.58 200.321 32.297L200.029 31.3288C199.684 31.6383 199.344 31.9124 199.007 32.1511C198.68 32.381 198.34 32.5756 197.986 32.7347C197.632 32.8939 197.257 33.0133 196.859 33.0928C196.461 33.1724 196.019 33.2122 195.532 33.2122C194.958 33.2122 194.427 33.1371 193.941 32.9867C193.454 32.8276 193.034 32.5932 192.681 32.2838C192.336 31.9743 192.066 31.5896 191.872 31.1298C191.677 30.67 191.58 30.1351 191.58 29.5249C191.58 29.0121 191.712 28.5081 191.978 28.0129C192.252 27.5089 192.703 27.0579 193.331 26.66C193.958 26.2532 194.794 25.9172 195.837 25.652C196.881 25.3867 198.176 25.2364 199.724 25.201V24.4052C199.724 23.4944 199.529 22.8224 199.14 22.3891C198.76 21.947 198.203 21.7259 197.469 21.7259C196.938 21.7259 196.496 21.7878 196.143 21.9116C195.789 22.0354 195.479 22.1769 195.214 22.336C194.958 22.4864 194.719 22.6234 194.498 22.7472C194.277 22.871 194.034 22.9329 193.768 22.9329C193.547 22.9329 193.357 22.8754 193.198 22.7605C193.039 22.6455 192.911 22.5041 192.813 22.336L192.217 21.2882C193.782 19.8557 195.669 19.1395 197.88 19.1395C198.676 19.1395 199.383 19.2721 200.002 19.5374C200.63 19.7939 201.161 20.1564 201.594 20.625C202.027 21.0848 202.354 21.6375 202.575 22.283C202.805 22.9285 202.92 23.6359 202.92 24.4052V33ZM196.554 30.9574C196.89 30.9574 197.199 30.9265 197.482 30.8646C197.765 30.8027 198.03 30.7098 198.278 30.586C198.534 30.4622 198.778 30.3119 199.007 30.1351C199.246 29.9494 199.485 29.7327 199.724 29.4851V27.1905C198.769 27.2347 197.969 27.3187 197.323 27.4425C196.686 27.5575 196.173 27.7078 195.784 27.8935C195.395 28.0792 195.117 28.2958 194.949 28.5434C194.79 28.791 194.71 29.0607 194.71 29.3525C194.71 29.9273 194.878 30.3384 195.214 30.586C195.559 30.8336 196.005 30.9574 196.554 30.9574ZM215.705 22.2697C215.607 22.3935 215.51 22.4908 215.413 22.5615C215.325 22.6323 215.192 22.6676 215.015 22.6676C214.847 22.6676 214.683 22.619 214.524 22.5217C214.365 22.4156 214.175 22.3007 213.954 22.1769C213.733 22.0442 213.468 21.9293 213.158 21.832C212.857 21.7259 212.482 21.6729 212.031 21.6729C211.456 21.6729 210.952 21.779 210.519 21.9912C210.085 22.1946 209.723 22.4908 209.431 22.8799C209.148 23.2689 208.936 23.742 208.794 24.2991C208.653 24.8473 208.582 25.4707 208.582 26.1692C208.582 26.8943 208.657 27.5398 208.808 28.1057C208.967 28.6716 209.192 29.1491 209.484 29.5382C209.776 29.9184 210.13 30.2102 210.545 30.4136C210.961 30.6081 211.429 30.7054 211.951 30.7054C212.473 30.7054 212.893 30.6435 213.211 30.5197C213.538 30.3871 213.812 30.2456 214.034 30.0953C214.255 29.9361 214.445 29.7946 214.604 29.6708C214.772 29.5382 214.958 29.4719 215.161 29.4719C215.426 29.4719 215.625 29.5736 215.758 29.7769L216.7 30.9707C216.337 31.3951 215.943 31.7532 215.519 32.045C215.095 32.328 214.652 32.5579 214.193 32.7347C213.742 32.9027 213.273 33.0221 212.787 33.0928C212.3 33.1636 211.818 33.199 211.341 33.199C210.501 33.199 209.71 33.0442 208.967 32.7347C208.224 32.4164 207.574 31.9566 207.017 31.3553C206.469 30.754 206.031 30.0201 205.704 29.1535C205.386 28.2782 205.226 27.2834 205.226 26.1692C205.226 25.17 205.368 24.246 205.651 23.3971C205.943 22.5394 206.367 21.8011 206.924 21.1821C207.481 20.5543 208.171 20.0635 208.993 19.7098C209.816 19.3562 210.762 19.1793 211.832 19.1793C212.849 19.1793 213.737 19.3429 214.498 19.6701C215.267 19.9972 215.957 20.4659 216.567 21.076L215.705 22.2697ZM223.253 33.2122C222.077 33.2122 221.171 32.8806 220.534 32.2174C219.898 31.5454 219.579 30.6214 219.579 29.4453V21.8453H218.2C218.023 21.8453 217.868 21.7878 217.736 21.6729C217.612 21.5579 217.55 21.3855 217.55 21.1556V19.8557L219.739 19.4976L220.428 15.7838C220.464 15.607 220.543 15.4699 220.667 15.3726C220.8 15.2754 220.963 15.2267 221.158 15.2267H222.855V19.5109H226.437V21.8453H222.855V29.2199C222.855 29.6443 222.962 29.9759 223.174 30.2146C223.386 30.4534 223.669 30.5728 224.023 30.5728C224.226 30.5728 224.394 30.5507 224.527 30.5064C224.668 30.4534 224.788 30.4003 224.885 30.3473C224.991 30.2942 225.084 30.2456 225.163 30.2014C225.243 30.1483 225.323 30.1218 225.402 30.1218C225.499 30.1218 225.579 30.1483 225.641 30.2014C225.703 30.2456 225.769 30.3163 225.84 30.4136L226.821 32.0052C226.344 32.4031 225.796 32.7038 225.177 32.9072C224.558 33.1105 223.917 33.2122 223.253 33.2122Z" fill="#8AA8F3"/>
<path d="M7.25647 13.3809L14.2808 1.65501L21.3052 13.3809L14.2808 17.6022L7.25647 13.3809Z" stroke="white" stroke-width="1.7"/>
<path d="M8.21116 17.2952L14.1822 25.5683L20.4027 17.2503L14.8417 20.6038C14.4248 20.8552 13.902 20.8511 13.4892 20.5931L8.21116 17.2952Z" stroke="white" stroke-width="1.7"/>
<path d="M4.92485 38.8748C5.67908 37.943 6.105 37.1871 6.35345 36.6632C6.59303 36.1586 6.65515 35.9054 7.03004 35.1495C7.11212 34.9852 7.24966 34.7145 7.38276 34.3279C7.4848 34.034 7.57575 33.7692 7.58906 33.5314C7.6179 32.9843 7.23191 32.5416 6.89251 32.1859C5.62806 30.8539 4.00424 29.6398 3.62713 29.3557C2.96163 28.8511 2.68212 28.6674 2.41592 28.246C2.06986 27.695 1.98556 27.117 1.90349 26.5119C1.81032 25.8121 1.89018 25.7676 1.81253 25.1471C1.71936 24.3796 1.57739 24.2849 1.33337 23.2815C1.14038 22.4928 0.976223 21.8123 1.00284 20.9443C1.02946 20.0531 1.22246 20.1613 1.21358 19.3165C1.20249 18.433 0.989533 18.0812 1.24464 17.4258C1.37774 17.0817 1.49309 17.0295 1.57517 16.6642C1.69053 16.1519 1.52415 15.9411 1.72602 15.5603C1.78148 15.4559 1.96782 15.1041 2.31388 15.0577C2.64884 15.0132 2.93501 15.2819 3.04814 15.3882C3.37646 15.6956 3.45632 16.0726 3.55836 16.554C3.57611 16.639 3.57167 16.6603 3.63378 17.0605C3.6604 17.2364 3.69146 17.4336 3.77132 17.6772C3.82012 17.8241 3.85562 17.9014 3.91773 17.9807C3.99093 18.0754 4.06858 18.1179 4.17062 18.2069C4.36583 18.375 4.50559 18.4775 4.57879 18.5413C4.92707 18.839 4.97809 19.2353 5.04686 19.5794C5.33746 21.0854 6.1649 22.9857 6.61522 23.875C6.76828 24.1766 6.96571 24.5613 7.30068 25.0407C7.82421 25.7908 8.37657 26.2548 8.89788 26.8C9.25059 27.1673 9.78077 27.7144 10.6459 28.1648C11.063 28.3813 11.3469 28.3697 11.8815 28.6636C12.0169 28.739 12.3407 28.9226 12.9219 29.4195C13.2968 29.7384 13.7849 30.1908 14.3062 30.792C14.3638 30.6625 14.4637 30.4673 14.6278 30.2527C14.7565 30.0845 14.9606 29.866 16.0098 29.1855C16.4358 28.9091 16.6554 28.768 16.9216 28.6346C17.3786 28.4065 17.7313 28.2943 17.9331 28.2228C18.7206 27.9483 19.2908 27.5829 19.9119 27.1847C20.6218 26.7304 21.4536 26.1949 22.1324 25.2553C22.5761 24.6425 22.778 24.1012 22.9909 23.529C23.2438 22.8543 23.3481 22.3343 23.5078 21.5436C23.8583 19.8191 23.6764 19.6374 24.069 19.0942C24.2753 18.81 24.5526 18.5452 24.699 18.0367C24.8277 17.5863 24.6924 17.5012 24.8122 17.0759C24.9874 16.4457 25.5265 15.7691 26.0256 15.8019C26.1343 15.8097 26.2452 15.8503 26.385 15.9585C26.9418 16.3935 26.9795 17.1475 26.9928 17.7023C27.0261 19.1657 26.9085 19.4499 26.9285 20.6369C26.9396 21.3232 26.9817 21.4334 27.0017 22.5353C27.015 23.2854 27.0061 23.8132 27.0017 23.991C26.9928 24.3893 26.9773 24.8764 26.9285 25.6362C26.8309 27.1866 26.7821 27.9618 26.7111 28.1667C26.345 29.2049 25.5398 29.8622 24.6613 30.5794C24.3574 30.8268 24.4772 30.6722 22.4696 32.1105C21.4337 32.8528 20.675 33.4251 20.8037 33.9277C20.8369 34.0553 20.9212 34.1636 21.0144 34.5057C21.1053 34.8363 21.1231 35.0818 21.1342 35.1998C21.1763 35.6251 21.5468 36.5685 21.5468 36.5685C21.7398 37.075 22.0814 37.6607 22.3254 38.4243" stroke="url(#paint0_linear_83_844)" stroke-width="1.7" stroke-miterlimit="10"/>
<path d="M11.5511 38.9584C12.1989 37.2069 12.718 36.2558 13.0885 35.7048C13.1816 35.5656 13.5299 35.0611 13.9159 34.3419C14.1244 33.9514 14.2797 33.6247 14.3773 33.4043C14.4372 33.6073 14.5415 33.9108 14.7256 34.2607C14.8764 34.5507 15.0162 34.7498 15.0428 34.7904C15.2802 35.1384 15.6573 36.1688 16.2895 38.8753" stroke="url(#paint1_linear_83_844)" stroke-width="1.7" stroke-miterlimit="10"/>
<path d="M7.25647 13.3799L14.2808 1.65404L21.3052 13.3799L14.2808 17.6012L7.25647 13.3799Z" stroke="url(#paint2_linear_83_844)" stroke-width="1.7"/>
<path d="M8.21116 17.2942L14.1822 25.5674L20.4027 17.2493L14.8417 20.6028C14.4248 20.8542 13.902 20.8501 13.4892 20.5921L8.21116 17.2942Z" stroke="url(#paint3_linear_83_844)" stroke-width="1.7"/>
<defs>
<linearGradient id="paint0_linear_83_844" x1="1" y1="26.9638" x2="28.1503" y2="29.8244" gradientUnits="userSpaceOnUse">
<stop stop-color="#8AA8F3"/>
<stop offset="0.0001" stop-color="#8AA8F3"/>
<stop offset="1" stop-color="#B3E3FF"/>
</linearGradient>
<linearGradient id="paint1_linear_83_844" x1="11.5511" y1="36.1814" x2="16.2895" y2="36.1814" gradientUnits="userSpaceOnUse">
<stop stop-color="#8AA8F3"/>
<stop offset="0.0001" stop-color="#8AA8F3"/>
<stop offset="1" stop-color="#B3E3FF"/>
</linearGradient>
<linearGradient id="paint2_linear_83_844" x1="6.09109" y1="9.29646" x2="21.8199" y2="13.5048" gradientUnits="userSpaceOnUse">
<stop stop-color="#8AA8F3"/>
<stop offset="0.0001" stop-color="#8AA8F3"/>
<stop offset="1" stop-color="#B3E3FF"/>
</linearGradient>
<linearGradient id="paint3_linear_83_844" x1="4.98428" y1="20.6393" x2="23.0859" y2="23.6325" gradientUnits="userSpaceOnUse">
<stop stop-color="#8AA8F3"/>
<stop offset="0.0001" stop-color="#8AA8F3"/>
<stop offset="1" stop-color="#B3E3FF"/>
</linearGradient>
</defs>
</svg>
